# Blender v2.90.1 OBJ File: 'workspace.blend'
# www.blender.org
mtllib table_living_room.mtl
o table_living_room_01
v -0.730042 0.291590 0.494085
v 0.730042 0.291590 0.494084
v 0.730042 0.275211 0.494084
v -0.730042 0.275211 0.494085
v 0.730042 0.291590 -0.494084
v -0.730042 0.291590 -0.494084
v -0.730042 0.275211 -0.494084
v 0.730042 0.275211 -0.494084
v 0.734839 0.291590 0.488300
v 0.734839 0.291590 -0.488300
v 0.734839 0.275211 -0.488300
v 0.734839 0.275211 0.488300
v 0.730042 0.270294 0.488300
v 0.730042 0.270294 -0.488300
v -0.730042 0.270294 -0.488300
v -0.730042 0.270294 0.488300
v 0.730042 0.296507 0.488300
v -0.730042 0.296507 0.488300
v -0.730042 0.296507 -0.488300
v 0.730042 0.296507 -0.488300
v -0.734838 0.275211 0.488300
v -0.734838 0.275211 -0.488300
v -0.734838 0.291590 -0.488300
v -0.734838 0.291590 0.488300
v -0.689354 0.266305 0.366162
v -0.677655 -0.448201 0.382623
v -0.645052 -0.448201 0.382623
v -0.633354 0.266305 0.366162
v 0.633355 0.266305 0.366162
v 0.645053 -0.448201 0.382623
v 0.677656 -0.448201 0.382623
v 0.689355 0.266305 0.366162
v 0.628642 0.266305 -0.371846
v 0.642309 -0.448200 -0.385932
v 0.642309 -0.448200 -0.425188
v 0.628642 0.266305 -0.439274
v -0.694067 0.266305 -0.371846
v -0.680399 -0.448200 -0.385932
v -0.680399 -0.448200 -0.425188
v -0.694067 0.266305 -0.439273
v 0.677656 -0.451013 -0.425188
v 0.645053 -0.451013 -0.425188
v 0.645053 -0.451013 -0.385932
v 0.677656 -0.451013 -0.385932
v 0.628642 0.266305 0.439274
v 0.642309 -0.448201 0.425187
v 0.642310 -0.448201 0.385932
v 0.628642 0.266305 0.371846
v 0.694068 0.266305 0.371846
v 0.680400 -0.448201 0.385932
v 0.680399 -0.448201 0.425187
v 0.694067 0.266305 0.439274
v 0.677656 -0.451014 0.385932
v 0.645053 -0.451014 0.385932
v 0.645053 -0.451014 0.425187
v 0.677656 -0.451014 0.425187
v -0.694067 0.266305 0.439274
v -0.680399 -0.448201 0.425188
v -0.680399 -0.448201 0.385932
v -0.694067 0.266305 0.371847
v 0.689355 0.266305 0.444958
v 0.677657 -0.448201 0.428497
v 0.645053 -0.448201 0.428497
v 0.633355 0.266305 0.444958
v -0.689354 0.266305 -0.444958
v -0.677656 -0.448200 -0.428497
v -0.645052 -0.448200 -0.428497
v -0.633354 0.266305 -0.444958
v -0.628641 0.266305 -0.439273
v -0.642309 -0.448200 -0.425188
v -0.642309 -0.448200 -0.385932
v -0.628641 0.266305 -0.371846
v 0.694067 0.266305 -0.439274
v 0.680400 -0.448200 -0.425188
v 0.680400 -0.448200 -0.385932
v 0.694068 0.266305 -0.371846
v 0.633355 0.266305 -0.444958
v 0.645053 -0.448200 -0.428497
v 0.677656 -0.448200 -0.428497
v 0.689355 0.266305 -0.444958
v -0.633354 0.271137 -0.439273
v -0.633354 0.271137 -0.371846
v -0.689354 0.271137 -0.371846
v -0.689354 0.271137 -0.439273
v -0.628641 0.266305 0.371847
v -0.642309 -0.448201 0.385932
v -0.642309 -0.448201 0.425188
v -0.628641 0.266305 0.439274
v -0.645052 -0.451013 -0.425188
v -0.677655 -0.451013 -0.425188
v -0.677656 -0.451013 -0.385932
v -0.645052 -0.451013 -0.385932
v 0.689355 0.266305 -0.366162
v 0.677656 -0.448200 -0.382623
v 0.645053 -0.448200 -0.382623
v 0.633354 0.266305 -0.366162
v -0.633354 0.266305 0.444958
v -0.645052 -0.448201 0.428497
v -0.677655 -0.448201 0.428497
v -0.689354 0.266305 0.444958
v -0.633354 0.266305 -0.366162
v -0.645052 -0.448200 -0.382623
v -0.677656 -0.448200 -0.382623
v -0.689354 0.266305 -0.366162
v 0.690437 0.270294 0.441256
v -0.690436 0.270294 0.441256
v -0.690436 0.270294 -0.441255
v 0.690437 0.270294 -0.441256
v -0.633354 0.271137 0.371847
v -0.633354 0.271137 0.439274
v -0.689354 0.271137 0.439274
v -0.689354 0.271137 0.371847
v 0.689355 0.271137 0.371846
v 0.689355 0.271137 0.439274
v 0.633355 0.271137 0.439274
v 0.633355 0.271137 0.371846
v 0.689355 0.271137 -0.439274
v 0.689355 0.271137 -0.371846
v 0.633355 0.271137 -0.371846
v 0.633354 0.271137 -0.439274
v -0.645052 -0.451014 0.385932
v -0.645052 -0.451014 0.425188
v -0.677656 -0.451014 0.425188
v -0.677656 -0.451014 0.385932
v 0.690437 0.203970 0.441256
v 0.690437 0.203970 -0.441256
v -0.690436 0.203970 -0.441255
v -0.690436 0.203970 0.441256
vt 0.904497 0.264088
vt 0.917620 0.561800
vt 0.911462 0.561766
vt 0.910655 0.264122
vt 0.999752 0.979693
vt 0.993593 0.513370
vt 0.999752 0.513370
vt 0.993593 0.979693
vt 0.904291 0.595512
vt 0.912341 0.835721
vt 0.906183 0.835662
vt 0.910449 0.595572
vt 0.384317 0.020307
vt 0.017041 0.486630
vt 0.017040 0.020307
vt 0.384317 0.486630
vt 0.418398 0.020307
vt 0.785674 0.486630
vt 0.418398 0.486630
vt 0.785674 0.020307
vt 0.910673 0.261722
vt 0.912545 0.262710
vt 0.017041 0.488162
vt 0.014865 0.486630
vt 0.017040 0.018776
vt 0.014865 0.020307
vt 0.910481 0.593172
vt 0.912341 0.594612
vt 0.785674 0.488162
vt 0.787850 0.486630
vt 0.787850 0.020307
vt 0.785674 0.018775
vt 0.902689 0.262656
vt 0.904515 0.261688
vt 0.904323 0.593112
vt 0.902486 0.594517
vt 0.999719 0.981225
vt 0.993560 0.981225
vt 0.384317 0.488162
vt 0.384317 0.018775
vt 0.386492 0.020307
vt 0.386492 0.486630
vt 0.993560 0.511838
vt 0.999719 0.511838
vt 0.418398 0.018776
vt 0.418398 0.488162
vt 0.416223 0.486630
vt 0.416223 0.020307
vt 0.911462 0.021608
vt 0.917620 0.021641
vt 0.805471 0.547649
vt 0.822132 0.775902
vt 0.809871 0.775902
vt 0.826532 0.547649
vt 0.920974 0.009131
vt 0.937635 0.237384
vt 0.925373 0.237384
vt 0.942034 0.009131
vt 0.881139 0.010714
vt 0.900663 0.238802
vt 0.889297 0.238892
vt 0.900663 0.010561
vt 0.854204 0.487021
vt 0.873728 0.715108
vt 0.862361 0.715198
vt 0.873728 0.486867
vt 0.877374 0.305044
vt 0.865113 0.317582
vt 0.865113 0.305044
vt 0.877374 0.317582
vt 0.773103 0.517652
vt 0.792626 0.745740
vt 0.781260 0.745829
vt 0.792626 0.517498
vt 0.967983 0.238483
vt 0.956616 0.010152
vt 0.967983 0.010241
vt 0.948459 0.238329
vt 0.865112 0.365052
vt 0.877373 0.352514
vt 0.877374 0.365052
vt 0.865112 0.352515
vt 0.734518 0.517652
vt 0.754042 0.745740
vt 0.742675 0.745829
vt 0.754042 0.517498
vt 0.756900 0.518330
vt 0.779644 0.745867
vt 0.771826 0.746224
vt 0.770327 0.517717
vt 0.877913 0.485437
vt 0.894574 0.713691
vt 0.882313 0.713691
vt 0.898974 0.485437
vt 0.992420 0.731545
vt 0.981054 0.503214
vt 0.992420 0.503304
vt 0.972897 0.731391
vt 0.968337 0.731545
vt 0.956970 0.503214
vt 0.968337 0.503304
vt 0.948813 0.731391
vt 0.920974 0.255662
vt 0.937635 0.483915
vt 0.925374 0.483915
vt 0.942035 0.255662
vt 0.860389 0.749707
vt 0.839329 0.728172
vt 0.860389 0.728172
vt 0.839329 0.749707
vt 0.992066 0.238483
vt 0.980699 0.010152
vt 0.992066 0.010241
vt 0.972542 0.238329
vt 0.877374 0.336691
vt 0.865112 0.349229
vt 0.865112 0.336691
vt 0.877374 0.349229
vt 0.864937 0.011392
vt 0.887680 0.238929
vt 0.879863 0.239286
vt 0.878364 0.010779
vt 0.718315 0.518330
vt 0.741059 0.745867
vt 0.733242 0.746224
vt 0.731743 0.517717
vt 0.838001 0.487699
vt 0.860745 0.715236
vt 0.852928 0.715593
vt 0.851429 0.487085
vt 0.371719 0.524579
vt 0.703611 0.965603
vt 0.371719 0.965603
vt 0.703611 0.524579
vt 0.886963 0.749707
vt 0.865902 0.728172
vt 0.886963 0.728172
vt 0.865902 0.749707
vt 0.887324 0.300579
vt 0.866264 0.279044
vt 0.887324 0.279044
vt 0.866264 0.300579
vt 0.866264 0.251865
vt 0.887324 0.273400
vt 0.866264 0.273400
vt 0.887325 0.251865
vt 0.878405 0.320868
vt 0.877374 0.320868
vt 0.877374 0.319811
vt 0.878405 0.365052
vt 0.877374 0.366109
vt 0.861732 0.716126
vt 0.864080 0.365052
vt 0.865112 0.366109
vt 0.979438 0.503177
vt 0.980425 0.502286
vt 0.888667 0.239819
vt 0.979083 0.010114
vt 0.980071 0.009224
vt 0.865113 0.303987
vt 0.864081 0.305044
vt 0.742047 0.746757
vt 0.864080 0.320868
vt 0.865112 0.319811
vt 0.865112 0.320868
vt 0.955000 0.010114
vt 0.955987 0.009224
vt 0.780631 0.746757
vt 0.877374 0.303987
vt 0.878406 0.305044
vt 0.955354 0.503177
vt 0.956341 0.502286
vt 0.864080 0.336691
vt 0.865112 0.335634
vt 0.878405 0.336691
vt 0.877374 0.335634
vt 0.862162 0.749707
vt 0.860389 0.751522
vt 0.837556 0.749707
vt 0.839329 0.751522
vt 0.946037 0.731327
vt 0.947634 0.732882
vt 0.866264 0.250050
vt 0.864492 0.251865
vt 0.771923 0.516161
vt 0.947279 0.239819
vt 0.945683 0.238264
vt 0.865902 0.751522
vt 0.864130 0.749707
vt 0.733339 0.516161
vt 0.889097 0.251865
vt 0.887324 0.250050
vt 0.971363 0.239819
vt 0.969767 0.238264
vt 0.879960 0.009224
vt 0.970121 0.731327
vt 0.971717 0.732882
vt 0.887324 0.302395
vt 0.889097 0.300579
vt 0.853025 0.485530
vt 0.866264 0.302395
vt 0.864492 0.300579
vt 0.886963 0.751522
vt 0.888735 0.749707
vt 0.877374 0.350285
vt 0.865112 0.350285
vt 0.877374 0.333405
vt 0.878405 0.333405
vt 0.864080 0.352515
vt 0.865112 0.333405
vt 0.877374 0.334462
vt 0.865112 0.334462
vt 0.878405 0.352514
vt 0.864080 0.333405
vt 0.878405 0.349229
vt 0.864080 0.349229
vt 0.865112 0.351458
vt 0.877373 0.351458
vt 0.877374 0.318639
vt 0.865113 0.318639
vt 0.878406 0.317582
vt 0.864080 0.317582
vt 0.808839 0.775918
vt 0.803699 0.547676
vt 0.881281 0.713707
vt 0.876141 0.485465
vt 0.828304 0.547677
vt 0.823164 0.775918
vt 0.943807 0.255690
vt 0.938667 0.483932
vt 0.924342 0.483932
vt 0.919202 0.255690
vt 0.943807 0.009159
vt 0.938667 0.237400
vt 0.900746 0.485465
vt 0.895606 0.713707
vt 0.924342 0.237400
vt 0.919202 0.009159
vt 0.864492 0.273400
vt 0.866264 0.277229
vt 0.887324 0.277229
vt 0.864130 0.728172
vt 0.865902 0.726356
vt 0.886963 0.726356
vt 0.889097 0.273400
vt 0.862162 0.728172
vt 0.889096 0.279044
vt 0.837556 0.728172
vt 0.864492 0.279044
vt 0.888735 0.728172
vt 0.887325 0.275216
vt 0.866264 0.275216
vt 0.839329 0.726356
vt 0.860389 0.726356
vt 0.345167 0.524579
vt 0.013276 0.965603
vt 0.013276 0.524579
vt 0.345168 0.965603
vt 0.803969 0.236892
vt 0.835318 0.020093
vt 0.828905 0.237040
vt 0.810382 0.019945
vt 0.919215 0.718776
vt 0.944148 0.502142
vt 0.944148 0.719160
vt 0.919215 0.501758
vt 0.862510 0.017641
vt 0.837570 0.458665
vt 0.837570 0.017641
vt 0.862510 0.458665
vt 0.810382 0.518425
vt 0.835318 0.518573
vn 0.0000 0.0000 1.0000
vn -0.0000 0.0000 -1.0000
vn 1.0000 0.0000 0.0000
vn 0.0000 -1.0000 -0.0000
vn -0.0000 1.0000 0.0000
vn -0.6156 -0.6004 0.5104
vn -0.6156 -0.6004 -0.5104
vn 0.6156 -0.6004 -0.5104
vn 0.6156 -0.6005 0.5104
vn -0.6156 0.6004 -0.5104
vn 0.6156 0.6005 -0.5104
vn -0.6156 0.6004 0.5104
vn 0.6156 0.6005 0.5104
vn 0.7698 0.0000 -0.6383
vn -0.7698 0.0000 0.6383
vn -0.7159 -0.6982 -0.0000
vn -0.0000 -0.7619 -0.6477
vn 0.7158 -0.6983 -0.0000
vn 0.7159 -0.6982 -0.0000
vn 0.0000 -0.7619 0.6477
vn 0.7698 0.0000 0.6383
vn -0.7698 0.0000 -0.6383
vn 0.7159 0.6983 0.0000
vn -0.0000 0.7619 -0.6477
vn -0.7159 0.6982 0.0000
vn 0.0000 0.7619 0.6477
vn -1.0000 0.0000 0.0000
vn 0.0000 -0.0230 -0.9997
vn -0.9998 -0.0191 -0.0000
vn 0.9998 -0.0191 0.0000
vn 0.0000 -0.0230 0.9997
vn 0.6156 -0.6005 -0.5104
vn -0.6156 -0.6005 -0.5104
vn -0.6155 -0.6005 0.5104
vn -0.6156 -0.6005 0.5104
vn 0.6157 -0.6005 0.5103
vn 0.6156 -0.6004 -0.5105
vn 0.6156 -0.6005 0.5103
vn -0.6156 0.6005 -0.5104
vn 0.6156 0.6004 -0.5104
vn 0.6156 0.6004 0.5104
vn -0.6157 0.6004 -0.5104
vn -0.6156 0.6004 0.5103
vn 0.0000 -0.7619 0.6476
vn 0.0000 -0.7620 0.6476
vn -0.7158 -0.6983 -0.0000
vn 0.0000 -0.7619 -0.6476
vn -0.7695 -0.0273 0.6380
vn 0.7695 -0.0273 0.6380
vn 0.7696 -0.0273 0.6380
vn -0.7695 -0.0273 -0.6380
vn 0.7695 -0.0273 0.6381
vn -0.7696 -0.0273 -0.6380
vn 0.7695 -0.0273 -0.6380
vn 0.7695 -0.0273 -0.6381
vn 0.7696 -0.0273 -0.6380
vn 0.7696 -0.0273 0.6379
vn -0.7694 -0.0273 0.6381
vn -0.7696 -0.0273 0.6380
vn 0.7158 0.6983 -0.0000
vn 0.7159 0.6982 -0.0000
vn -0.7159 0.6983 0.0000
usemtl table_living_room_01
s 1
f 1/1/1 3/2/1 2/3/1
f 1/1/1 4/4/1 3/2/1
f 5/5/2 7/6/2 6/7/2
f 5/5/2 8/8/2 7/6/2
f 9/9/3 11/10/3 10/11/3
f 9/9/3 12/12/3 11/10/3
f 13/13/4 15/14/4 14/15/4
f 13/13/4 16/16/4 15/14/4
f 17/17/5 19/18/5 18/19/5
f 17/17/5 20/20/5 19/18/5
f 4/4/6 21/21/6 16/22/6
f 22/23/7 7/24/7 15/14/7
f 11/25/8 14/15/8 8/26/8
f 12/12/9 3/27/9 13/28/9
f 23/29/10 19/18/10 6/30/10
f 5/31/11 20/20/11 10/32/11
f 1/1/12 18/33/12 24/34/12
f 2/35/13 9/9/13 17/36/13
f 8/8/14 10/37/14 11/38/14
f 8/8/14 5/5/14 10/37/14
f 4/4/15 24/34/15 21/21/15
f 4/4/15 1/1/15 24/34/15
f 15/14/16 21/39/16 22/23/16
f 15/14/16 16/16/16 21/39/16
f 14/15/17 7/24/17 8/26/17
f 14/15/17 15/14/17 7/24/17
f 13/13/18 11/25/19 12/40/18
f 13/13/18 14/15/19 11/25/19
f 16/16/20 3/41/20 4/42/20
f 16/16/20 13/13/20 3/41/20
f 2/35/21 12/12/21 9/9/21
f 2/35/21 3/27/21 12/12/21
f 6/7/22 22/43/22 23/44/22
f 6/7/22 7/6/22 22/43/22
f 9/45/23 20/20/23 17/17/23
f 9/45/23 10/32/23 20/20/23
f 5/31/24 19/18/24 20/20/24
f 5/31/24 6/30/24 19/18/24
f 23/29/25 18/19/25 19/18/25
f 23/29/25 24/46/25 18/19/25
f 1/47/26 17/17/26 18/19/26
f 1/47/26 2/48/26 17/17/26
f 23/49/27 21/21/27 24/34/27
f 23/49/27 22/50/27 21/21/27
f 25/51/28 27/52/28 26/53/28
f 25/51/28 28/54/28 27/52/28
f 29/55/28 31/56/28 30/57/28
f 29/55/28 32/58/28 31/56/28
f 33/59/29 35/60/29 34/61/29
f 33/59/29 36/62/29 35/60/29
f 37/63/29 39/64/29 38/65/29
f 37/63/29 40/66/29 39/64/29
f 41/67/4 43/68/4 42/69/4
f 41/67/4 44/70/4 43/68/4
f 45/71/29 47/72/29 46/73/29
f 45/71/29 48/74/29 47/72/29
f 49/75/30 51/76/30 50/77/30
f 49/75/30 52/78/30 51/76/30
f 53/79/4 55/80/4 54/81/4
f 53/79/4 56/82/4 55/80/4
f 57/83/29 59/84/29 58/85/29
f 57/83/29 60/86/29 59/84/29
f 61/87/31 63/88/31 62/89/31
f 61/87/31 64/90/31 63/88/31
f 65/91/28 67/92/28 66/93/28
f 65/91/28 68/94/28 67/92/28
f 69/95/30 71/96/30 70/97/30
f 69/95/30 72/98/30 71/96/30
f 73/99/30 75/100/30 74/101/30
f 73/99/30 76/102/30 75/100/30
f 77/103/28 79/104/28 78/105/28
f 77/103/28 80/106/28 79/104/28
f 81/107/5 83/108/5 82/109/5
f 81/107/5 84/110/5 83/108/5
f 85/111/30 87/112/30 86/113/30
f 85/111/30 88/114/30 87/112/30
f 89/115/4 91/116/4 90/117/4
f 89/115/4 92/118/4 91/116/4
f 93/119/31 95/120/31 94/121/31
f 93/119/31 96/122/31 95/120/31
f 97/123/31 99/124/31 98/125/31
f 97/123/31 100/126/31 99/124/31
f 101/127/31 103/128/31 102/129/31
f 101/127/31 104/130/31 103/128/31
f 105/131/5 107/132/5 106/133/5
f 105/131/5 108/134/5 107/132/5
f 109/135/5 111/136/5 110/137/5
f 109/135/5 112/138/5 111/136/5
f 113/139/5 115/140/5 114/141/5
f 113/139/5 116/142/5 115/140/5
f 117/143/5 119/144/5 118/145/5
f 117/143/5 120/146/5 119/144/5
f 86/147/32 121/148/32 27/149/32
f 47/150/33 30/151/33 54/81/33
f 103/128/6 38/65/6 91/152/6
f 50/153/8 53/79/8 31/154/8
f 102/155/9 92/156/9 71/96/9
f 95/120/34 34/61/34 43/157/34
f 87/112/9 98/158/9 122/159/9
f 78/160/33 42/69/33 35/161/33
f 99/124/35 58/85/35 123/162/35
f 59/163/7 26/164/7 124/165/7
f 51/76/36 62/166/36 56/167/36
f 46/73/35 55/168/35 63/88/35
f 79/169/37 74/170/37 41/67/37
f 94/171/38 44/172/38 75/100/38
f 39/173/33 66/174/33 90/117/33
f 70/175/8 89/115/8 67/176/8
f 69/177/11 68/178/11 81/107/11
f 40/179/39 84/110/39 65/180/39
f 93/181/13 76/102/13 118/182/13
f 80/183/40 117/143/40 73/184/40
f 45/71/12 64/90/12 115/185/12
f 52/78/41 114/186/41 61/187/41
f 25/188/10 60/189/10 112/138/10
f 100/126/12 111/190/12 57/83/12
f 36/191/42 120/146/42 77/192/42
f 88/114/13 110/193/13 97/194/13
f 96/122/43 119/195/43 33/59/43
f 101/196/41 72/98/41 82/197/41
f 32/198/11 113/139/11 49/199/11
f 104/130/12 83/200/12 37/63/12
f 29/201/10 48/202/10 116/142/10
f 28/203/40 109/135/40 85/204/40
f 102/205/44 91/116/20 92/118/44
f 102/205/44 103/206/20 91/116/20
f 122/207/18 86/147/18 87/208/18
f 122/207/18 121/148/18 86/147/18
f 56/82/19 50/153/19 51/209/19
f 56/82/19 53/79/19 50/153/19
f 123/210/44 98/211/45 99/212/44
f 123/210/44 122/207/45 98/211/45
f 46/213/46 54/81/16 55/80/46
f 46/213/46 47/150/16 54/81/16
f 41/67/17 78/160/47 79/169/17
f 41/67/17 42/69/47 78/160/47
f 124/165/16 58/214/16 59/163/16
f 124/165/16 123/210/16 58/214/16
f 121/148/17 26/164/47 27/149/17
f 121/148/17 124/165/47 26/164/47
f 92/118/18 70/175/19 71/215/18
f 92/118/18 89/115/19 70/175/19
f 53/79/17 30/151/17 31/154/17
f 53/79/17 54/81/17 30/151/17
f 90/117/46 38/216/16 39/173/46
f 90/117/46 91/116/16 38/216/16
f 55/80/44 62/217/44 63/218/20
f 55/80/44 56/82/44 62/217/44
f 94/219/44 43/68/20 44/70/44
f 94/219/44 95/220/20 43/68/20
f 89/115/17 66/174/17 67/176/17
f 89/115/17 90/117/17 66/174/17
f 44/70/18 74/170/19 75/221/18
f 44/70/18 41/67/19 74/170/19
f 34/222/46 42/69/46 43/68/46
f 34/222/46 35/161/46 42/69/46
f 45/71/48 63/88/48 64/90/48
f 45/71/48 46/73/48 63/88/48
f 97/194/49 87/112/50 88/114/49
f 97/194/49 98/158/50 87/112/50
f 59/223/51 25/51/51 26/53/51
f 59/223/51 60/224/51 25/51/51
f 93/181/52 75/100/49 76/102/52
f 93/181/52 94/171/49 75/100/49
f 39/225/53 65/91/51 66/93/53
f 39/225/53 40/226/51 65/91/51
f 71/96/49 101/196/49 102/155/49
f 71/96/49 72/98/49 101/196/49
f 85/227/54 27/52/54 28/54/54
f 85/227/54 86/228/54 27/52/54
f 79/104/55 73/229/56 74/230/55
f 79/104/55 80/106/56 73/229/56
f 37/63/48 103/128/48 104/130/48
f 37/63/48 38/65/48 103/128/48
f 99/124/48 57/83/48 58/85/48
f 99/124/48 100/126/48 57/83/48
f 77/103/51 35/231/51 36/232/51
f 77/103/51 78/105/51 35/231/51
f 49/233/55 31/56/54 32/58/55
f 49/233/55 50/234/54 31/56/54
f 61/187/49 51/76/57 52/78/49
f 61/187/49 62/166/57 51/76/57
f 67/92/54 69/235/54 70/236/54
f 67/92/54 68/94/54 69/235/54
f 95/120/58 33/59/59 34/61/58
f 95/120/58 96/122/59 33/59/59
f 47/237/51 29/55/51 30/57/51
f 47/237/51 48/238/51 29/55/51
f 68/178/24 84/110/24 81/107/24
f 68/178/24 65/180/24 84/110/24
f 76/239/60 117/143/61 118/145/60
f 76/239/60 73/184/61 117/143/61
f 64/240/26 114/141/26 115/140/26
f 64/240/26 61/241/26 114/141/26
f 60/189/25 111/136/25 112/138/25
f 60/189/25 57/242/25 111/136/25
f 80/183/24 120/146/24 117/143/24
f 80/183/24 77/192/24 120/146/24
f 100/243/26 110/137/26 111/136/26
f 100/243/26 97/244/26 110/137/26
f 119/144/25 36/191/25 33/245/25
f 119/144/25 120/146/25 36/191/25
f 72/246/61 81/107/61 82/109/61
f 72/246/61 69/177/61 81/107/61
f 52/247/61 113/139/60 114/141/61
f 52/247/61 49/199/60 113/139/60
f 40/179/25 83/108/25 84/110/62
f 40/179/25 37/248/25 83/108/25
f 115/140/25 48/202/25 45/249/25
f 115/140/25 116/142/25 48/202/25
f 88/250/23 109/135/61 110/137/23
f 88/250/23 85/204/61 109/135/61
f 118/145/26 96/251/26 93/252/26
f 118/145/26 119/144/26 96/251/26
f 32/198/24 116/142/24 113/139/24
f 32/198/24 29/201/24 116/142/24
f 82/109/26 104/253/26 101/254/26
f 82/109/26 83/108/26 104/253/26
f 28/203/24 112/138/24 109/135/24
f 28/203/24 25/188/24 112/138/24
f 121/148/4 123/210/4 124/165/4
f 121/148/4 122/207/4 123/210/4
f 125/255/4 127/256/4 126/257/4
f 125/255/4 128/258/4 127/256/4
f 106/259/27 127/260/27 128/261/27
f 106/259/27 107/262/27 127/260/27
f 108/263/3 125/264/3 126/265/3
f 108/263/3 105/266/3 125/264/3
f 107/267/2 126/268/2 127/269/2
f 107/267/2 108/270/2 126/268/2
f 105/271/1 128/261/1 125/272/1
f 105/271/1 106/259/1 128/261/1
