# Blender v2.90.1 OBJ File: 'workspace.blend'
# www.blender.org
mtllib alarm_clock.mtl
o alarm_clock_01
v 0.079563 -0.047867 0.030688
v -0.079568 -0.047867 0.030676
v -0.079568 0.018151 0.030699
v 0.079563 0.018151 0.030710
v -0.036851 0.018570 -0.021998
v -0.079461 0.018576 -0.041035
v 0.079467 0.018576 -0.041023
v 0.036854 0.018570 -0.021993
v -0.036853 0.018558 0.011402
v -0.079466 0.018552 0.030433
v 0.036257 0.018959 0.010649
v 0.036257 0.021350 0.010649
v 0.036259 0.021361 -0.021232
v 0.036259 0.018970 -0.021233
v -0.080061 -0.047867 0.030182
v -0.080056 -0.047843 -0.040830
v -0.080056 0.018175 -0.040808
v -0.080061 0.018151 0.030205
v 0.079462 0.018552 0.030445
v 0.036852 0.018558 0.011408
v -0.035765 0.018959 0.011137
v -0.035765 0.021350 0.011138
v 0.035763 0.021350 0.011143
v 0.035763 0.018959 0.011142
v 0.035766 0.018970 -0.021727
v 0.035766 0.021361 -0.021726
v -0.035762 0.021361 -0.021731
v -0.035762 0.018970 -0.021732
v 0.035766 0.021762 -0.021232
v 0.035763 0.021751 0.010649
v -0.035765 0.021751 0.010644
v -0.035762 0.021762 -0.021238
v -0.036256 0.018970 -0.021238
v -0.036256 0.021361 -0.021238
v -0.036258 0.021350 0.010644
v -0.036258 0.018959 0.010643
v -0.079562 -0.047842 -0.041324
v 0.079569 -0.047842 -0.041312
v 0.079569 0.018176 -0.041289
v -0.079562 0.018176 -0.041301
v 0.080062 -0.047843 -0.040819
v 0.080057 -0.047867 0.030194
v 0.080057 0.018151 0.030217
v 0.080062 0.018175 -0.040796
v -0.079568 -0.048268 0.030182
v -0.079563 -0.048243 -0.040831
v 0.079563 -0.048268 0.030194
v 0.079569 -0.048243 -0.040819
vt 0.041747 0.031675
vt 0.266636 0.393766
vt 0.012762 0.403515
vt 0.295621 0.021926
vt 0.694716 0.163285
vt 0.620984 0.546118
vt 0.620984 0.023039
vt 0.694716 0.405872
vt 0.824100 0.163285
vt 0.897831 0.023039
vt 0.023321 0.597952
vt 0.014059 0.702885
vt 0.014059 0.597952
vt 0.023322 0.702885
vt 0.012884 0.405810
vt 0.297258 0.560326
vt 0.043384 0.570074
vt 0.266758 0.396061
vt 0.897832 0.546118
vt 0.824100 0.405872
vt 0.911750 0.180062
vt 0.934515 0.012623
vt 0.920946 0.179731
vt 0.925319 0.012955
vt 0.011487 0.601924
vt 0.002340 0.768568
vt 0.002340 0.601056
vt 0.011487 0.769436
vt 0.869494 0.815748
vt 0.992995 0.580328
vt 0.992995 0.815748
vt 0.869494 0.580328
vt 0.925319 0.256137
vt 0.921061 0.182026
vt 0.934515 0.255806
vt 0.911865 0.182357
vt 0.320143 0.587396
vt 0.572705 0.984043
vt 0.320143 0.960066
vt 0.572705 0.611374
vt 0.852198 0.813985
vt 0.596463 0.580260
vt 0.852198 0.580260
vt 0.596463 0.813985
vt 0.011433 0.404716
vt 0.821159 0.165244
vt 0.823070 0.166868
vt 0.318910 0.586124
vt 0.320444 0.585114
vt 0.697658 0.165244
vt 0.695746 0.166868
vt 0.321759 0.546452
vt 0.321759 0.548077
vt 0.319847 0.546452
vt 0.821159 0.403913
vt 0.823071 0.402288
vt 0.596843 0.546452
vt 0.598754 0.546452
vt 0.596843 0.548076
vt 0.695746 0.402288
vt 0.697658 0.403913
vt 0.268310 0.394084
vt 0.574400 0.611150
vt 0.573005 0.609091
vt 0.594911 0.814734
vt 0.596463 0.815609
vt 0.594911 0.579511
vt 0.596463 0.578635
vt 0.922695 0.180817
vt 0.002040 0.770851
vt 0.000507 0.769549
vt 0.867582 0.815748
vt 0.869494 0.817372
vt 0.992995 0.817372
vt 0.994907 0.815748
vt 0.596843 0.022704
vt 0.321759 0.021080
vt 0.596842 0.021080
vt 0.321759 0.022704
vt 0.621866 0.021080
vt 0.896950 0.021080
vt 0.598754 0.022704
vt 0.574400 0.983343
vt 0.852198 0.815609
vt 0.896950 0.548077
vt 0.621866 0.548077
vt 0.852198 0.578635
vt 0.319847 0.022704
vt 0.297258 0.022719
vt 0.013182 0.598913
vt 0.013182 0.771524
vt 0.909890 0.182046
vt 0.923873 0.009851
vt 0.869494 0.578703
vt 0.992995 0.578703
vt 0.867583 0.580328
vt 0.994907 0.580328
vt 0.023321 0.704509
vt 0.014060 0.704509
vt 0.014060 0.596328
vt 0.023322 0.596328
vt 0.011187 0.771719
vn -0.0001 -0.0003 1.0000
vn -0.0000 1.0000 0.0003
vn 1.0000 -0.0000 0.0001
vn -1.0000 -0.0000 -0.0001
vn 0.0001 0.0003 -1.0000
vn -0.5334 -0.6567 0.5331
vn -0.2729 0.9224 0.2733
vn -0.5332 -0.6567 -0.5333
vn -0.5333 -0.6563 -0.5336
vn -0.2729 0.9226 -0.2725
vn 0.5333 -0.6569 0.5330
vn 0.2728 0.9224 0.2734
vn 0.5334 -0.6565 -0.5335
vn 0.2729 0.9227 -0.2725
vn -0.5933 0.5440 0.5934
vn -0.5932 0.5446 -0.5929
vn -0.5932 0.5444 -0.5931
vn 0.5937 0.5443 -0.5927
vn 0.5933 0.5439 0.5934
vn -0.5335 0.6566 0.5332
vn -0.5335 0.6566 0.5331
vn -0.5333 0.6565 0.5335
vn -0.5331 0.6569 -0.5331
vn 0.5332 0.6570 -0.5330
vn 0.5331 0.6566 0.5336
vn 0.5333 0.6564 0.5335
vn -0.6305 -0.7762 -0.0003
vn -0.6304 -0.7762 -0.0003
vn -0.7072 -0.0002 0.7071
vn -0.7071 -0.0002 0.7071
vn -0.7067 -0.0002 0.7075
vn -0.7075 -0.0002 0.7067
vn -0.5585 0.8295 0.0002
vn -0.5584 0.8296 0.0002
vn -0.5588 0.8293 0.0004
vn -0.7071 0.0002 -0.7072
vn 0.0000 -0.7760 -0.6307
vn 0.0001 0.5531 -0.8331
vn 0.7072 0.0002 -0.7071
vn 0.7072 0.0002 -0.7070
vn 0.7075 0.0002 -0.7067
vn 0.7068 0.0002 -0.7074
vn 0.6301 -0.7765 -0.0002
vn 0.6305 -0.7762 -0.0002
vn 0.6303 -0.7763 -0.0002
vn 0.5585 0.8295 0.0003
vn 0.5586 0.8295 0.0003
vn 0.7071 -0.0002 0.7071
vn -0.0000 -0.7764 0.6302
vn -0.0001 0.5526 0.8335
vn -0.0001 0.5526 0.8334
vn 0.0001 0.5534 -0.8329
vn 0.0001 0.5532 -0.8330
vn 0.5584 0.8296 0.0003
vn -0.0001 0.5525 0.8335
vn -0.6303 0.7763 0.0002
vn -0.6302 0.7764 0.0002
vn -0.6305 0.7762 0.0004
vn 0.0000 0.7765 -0.6301
vn 0.0000 0.7766 -0.6301
vn 0.0000 0.7766 -0.6300
vn 0.6303 0.7764 0.0003
vn 0.6303 0.7763 0.0003
vn 0.6300 0.7766 0.0007
vn -0.0000 0.7761 0.6306
vn -0.0000 0.7761 0.6307
vn 0.7071 0.0002 -0.7071
vn 0.7068 0.0003 -0.7074
vn 0.7070 -0.0002 0.7072
vn -0.7074 -0.0002 0.7068
vn -0.7073 0.0005 -0.7069
vn -0.7072 0.0004 -0.7070
vn -0.7070 0.0002 -0.7072
vn 0.0000 -1.0000 -0.0003
usemtl alarm_clock_01
s 1
f 1/1/1 3/2/1 2/3/1
f 1/1/1 4/4/1 3/2/1
f 5/5/2 7/6/2 6/7/2
f 5/5/2 8/8/2 7/6/2
f 9/9/2 5/5/2 6/7/2
f 9/9/2 6/7/2 10/10/2
f 11/11/3 13/12/3 12/13/3
f 11/11/3 14/14/3 13/12/3
f 15/15/4 17/16/4 16/17/4
f 15/15/4 18/18/4 17/16/4
f 8/8/2 19/19/2 7/6/2
f 8/8/2 20/20/2 19/19/2
f 20/20/2 10/10/2 19/19/2
f 20/20/2 9/9/2 10/10/2
f 21/21/1 23/22/1 22/23/1
f 21/21/1 24/24/1 23/22/1
f 25/25/5 27/26/5 26/27/5
f 25/25/5 28/28/5 27/26/5
f 29/29/2 31/30/2 30/31/2
f 29/29/2 32/32/2 31/30/2
f 33/33/4 35/34/4 34/35/4
f 33/33/4 36/36/4 35/34/4
f 37/37/5 39/38/5 38/39/5
f 37/37/5 40/40/5 39/38/5
f 41/41/3 43/42/3 42/43/3
f 41/41/3 44/44/3 43/42/3
f 45/45/6 2/3/6 15/15/6
f 36/46/7 9/9/7 21/47/7
f 46/48/8 16/49/8 37/37/9
f 33/50/10 28/51/10 5/5/10
f 47/52/11 42/53/11 1/54/11
f 11/55/12 24/56/12 20/20/12
f 48/57/13 38/58/13 41/59/13
f 25/60/14 14/61/14 8/8/14
f 3/2/15 10/62/15 18/18/15
f 6/63/16 40/40/17 17/64/17
f 7/65/18 44/44/18 39/66/18
f 19/67/19 4/68/19 43/42/19
f 35/34/20 22/23/21 31/69/22
f 34/70/23 32/71/23 27/26/23
f 26/72/24 29/29/24 13/73/24
f 12/74/25 30/31/26 23/75/25
f 46/76/27 15/77/28 16/78/27
f 46/76/27 45/79/28 15/77/28
f 2/3/29 18/18/30 15/15/31
f 2/3/29 3/2/32 18/18/30
f 10/10/33 17/80/34 18/81/33
f 10/10/33 6/7/35 17/80/34
f 40/40/36 16/49/36 17/64/36
f 40/40/36 37/37/36 16/49/36
f 48/57/37 37/82/37 38/58/37
f 48/57/37 46/76/37 37/82/37
f 6/63/38 39/38/38 40/40/38
f 6/63/38 7/83/38 39/38/38
f 44/44/39 38/84/40 39/66/41
f 44/44/39 41/41/42 38/84/40
f 47/52/43 41/59/44 42/53/45
f 47/52/43 48/57/44 41/59/44
f 7/6/46 43/85/47 44/86/46
f 7/6/46 19/19/47 43/85/47
f 4/68/48 42/43/48 43/42/48
f 4/68/48 1/87/48 42/43/48
f 45/79/49 1/54/49 2/88/49
f 45/79/49 47/52/49 1/54/49
f 19/89/50 3/2/51 4/4/50
f 19/89/50 10/62/51 3/2/51
f 36/46/33 5/5/33 9/9/33
f 36/46/33 33/50/33 5/5/33
f 28/28/52 8/90/53 5/91/52
f 28/28/52 25/25/53 8/90/53
f 14/61/54 20/20/46 8/8/54
f 14/61/54 11/55/46 20/20/46
f 24/24/55 9/92/55 20/93/55
f 24/24/55 21/21/55 9/92/55
f 31/30/56 34/94/57 35/95/56
f 31/30/56 32/32/58 34/94/57
f 32/32/59 26/72/60 27/96/59
f 32/32/59 29/29/61 26/72/60
f 29/29/62 12/74/63 13/73/62
f 29/29/62 30/31/64 12/74/63
f 30/31/65 22/97/66 23/75/65
f 30/31/65 31/30/66 22/97/66
f 25/98/67 13/12/39 14/14/68
f 25/98/67 26/99/39 13/12/39
f 23/100/69 11/11/69 12/13/69
f 23/100/69 24/101/69 11/11/69
f 21/21/70 35/34/30 36/36/29
f 21/21/70 22/23/32 35/34/30
f 27/26/71 33/102/72 34/70/73
f 27/26/71 28/28/73 33/102/72
f 46/76/74 47/52/74 45/79/74
f 46/76/74 48/57/74 47/52/74
